<svg width="438" height="480" viewBox="0 0 438 480" fill="none" xmlns="http://www.w3.org/2000/svg">
<g opacity="0.8">
<path opacity="0.8" d="M-327.635 481.463C-327.487 478.21 -326.416 475.067 -324.548 472.399L-24.1881 42.9014C-22.897 41.0446 -21.2506 39.462 -19.344 38.2451C-17.4375 37.0283 -15.3086 36.2013 -13.0804 35.8119C-10.8529 35.4108 -8.56802 35.4539 -6.35724 35.9387C-4.14645 36.4235 -2.05331 37.3404 -0.198242 38.6368L430.623 338.228C432.477 339.517 434.058 341.158 435.275 343.059C436.493 344.959 437.323 347.082 437.718 349.304C438.114 351.526 438.066 353.804 437.578 356.008C437.091 358.212 436.173 360.297 434.877 362.145L134.517 791.643C133.226 793.5 131.579 795.083 129.673 796.3C127.766 797.517 125.637 798.344 123.409 798.733C121.182 799.135 118.897 799.093 116.686 798.608C114.475 798.123 112.382 797.206 110.527 795.908L-320.294 496.316C-322.676 494.665 -324.599 492.435 -325.883 489.837C-327.167 487.239 -327.77 484.358 -327.635 481.463ZM436.603 353.021C436.727 350.355 436.171 347.702 434.987 345.311C433.803 342.92 432.029 340.869 429.833 339.352L-0.98819 39.7667C-2.69446 38.5742 -4.61969 37.7306 -6.65317 37.2844C-8.68665 36.8382 -10.7883 36.7981 -12.8373 37.1666C-14.8869 37.525 -16.8453 38.2854 -18.5995 39.4042C-20.3537 40.523 -21.869 41.9779 -23.0579 43.6851L-323.418 473.183C-325.137 475.635 -326.121 478.527 -326.255 481.518C-326.378 484.185 -325.821 486.839 -324.635 489.231C-323.45 491.623 -321.676 493.674 -319.48 495.193L111.341 794.784C113.049 795.977 114.975 796.819 117.01 797.265C119.044 797.71 121.147 797.748 123.197 797.378C125.247 797.021 127.206 796.261 128.96 795.142C130.714 794.023 132.229 792.568 133.417 790.86L433.777 361.362C435.495 358.908 436.476 356.014 436.603 353.021Z" fill="#ECF9ED" fill-opacity="0.5"/>
<path opacity="0.8" d="M-329.932 464.842C-329.787 461.595 -328.697 458.462 -326.797 455.826L-28.6973 40.9082C-27.4128 39.1121 -25.7847 37.5886 -23.9073 36.4259C-22.0298 35.2632 -19.9402 34.4844 -17.7596 34.1346C-15.581 33.7694 -13.3517 33.8391 -11.2002 34.3396C-9.04865 34.84 -7.01752 35.7614 -5.22391 37.0506L410.959 334.376C412.756 335.654 414.282 337.273 415.45 339.143C416.618 341.012 417.404 343.093 417.765 345.267C418.125 347.442 418.052 349.666 417.549 351.811C417.047 353.957 416.125 355.983 414.836 357.771L116.737 772.689C114.13 776.301 110.199 778.735 105.803 779.459C101.407 780.182 96.9036 779.138 93.2756 776.553L-322.92 479.221C-325.198 477.601 -327.033 475.436 -328.258 472.924C-329.483 470.412 -330.059 467.633 -329.932 464.842ZM416.592 348.689C416.71 346.127 416.183 343.576 415.058 341.271C413.934 338.965 412.249 336.979 410.157 335.494L-6.04422 38.1623C-7.6893 36.9779 -9.55289 36.1312 -11.5273 35.6714C-13.5017 35.2116 -15.5477 35.1476 -17.547 35.4832C-19.5475 35.8055 -21.4643 36.5213 -23.1863 37.5891C-24.9083 38.6569 -26.4015 40.0555 -27.5793 41.704L-325.679 456.622C-327.424 459.041 -328.423 461.917 -328.553 464.896C-328.673 467.466 -328.144 470.025 -327.015 472.338C-325.887 474.65 -324.194 476.641 -322.093 478.127L94.0838 775.435C97.4137 777.807 101.547 778.766 105.582 778.102C109.616 777.439 113.224 775.207 115.619 771.893L413.718 356.975C415.466 354.553 416.465 351.672 416.592 348.689Z" fill="#ECF9ED" fill-opacity="0.5"/>
<path opacity="0.8" d="M-332.229 448.227C-332.091 444.987 -330.984 441.864 -329.051 439.26L-33.2061 38.9216C-30.6224 35.4264 -26.7568 33.0991 -22.4582 32.451C-18.1596 31.8029 -13.7794 32.8869 -10.2796 35.465L391.284 330.506C393.016 331.778 394.481 333.378 395.594 335.216C396.707 337.054 397.446 339.094 397.769 341.218C398.092 343.342 397.992 345.51 397.476 347.595C396.959 349.681 396.036 351.644 394.759 353.373L98.9206 753.711C97.6452 755.445 96.0385 756.909 94.1934 758.019C92.3483 759.128 90.3015 759.861 88.1713 760.175C86.043 760.502 83.8708 760.406 81.7798 759.891C79.6889 759.376 77.7205 758.452 75.988 757.174L-325.594 462.096C-327.754 460.507 -329.49 458.41 -330.647 455.991C-331.805 453.572 -332.348 450.905 -332.229 448.227ZM396.582 344.345C396.693 341.888 396.197 339.441 395.137 337.221C394.077 335.002 392.487 333.077 390.506 331.618L-11.0938 36.5585C-14.3039 34.2049 -18.3152 33.2173 -22.2514 33.8115C-26.1875 34.4057 -29.7284 36.5334 -32.1002 39.7296L-327.939 440.068C-329.709 442.456 -330.725 445.318 -330.856 448.287C-330.967 450.744 -330.47 453.19 -329.411 455.408C-328.351 457.627 -326.76 459.551 -324.779 461.008L76.7962 756.086C78.3835 757.258 80.1869 758.104 82.1025 758.576C84.0182 759.049 86.0084 759.138 87.9586 758.838C89.9094 758.55 91.7837 757.878 93.4733 756.861C95.1629 755.845 96.6343 754.503 97.8025 752.915L393.641 352.577C395.423 350.193 396.448 347.33 396.582 344.357V344.345Z" fill="#ECF9ED" fill-opacity="0.5"/>
<path opacity="0.8" d="M-334.531 431.611C-334.394 428.376 -333.266 425.26 -331.299 422.687L-37.7202 36.9289C-36.4523 35.2567 -34.8657 33.852 -33.0521 32.7958C-31.2385 31.7396 -29.2337 31.0528 -27.1533 30.775C-25.0738 30.4859 -22.9576 30.6102 -20.9263 31.1408C-18.895 31.6715 -16.9886 32.598 -15.3163 33.8671L371.645 326.679C373.315 327.943 374.718 329.525 375.775 331.333C376.832 333.14 377.521 335.139 377.804 337.214C378.086 339.289 377.956 341.399 377.42 343.423C376.885 345.448 375.955 347.346 374.683 349.011L81.1051 734.769C78.5293 738.129 74.7286 740.335 70.5324 740.904C66.3363 741.473 62.0853 740.359 58.7072 737.806L-328.254 444.995C-330.305 443.437 -331.947 441.406 -333.04 439.075C-334.134 436.744 -334.645 434.183 -334.531 431.611ZM376.579 340.026C376.68 337.669 376.208 335.323 375.203 333.188C374.197 331.054 372.689 329.196 370.807 327.773L-16.1488 34.9606C-17.6753 33.798 -19.4171 32.9492 -21.2735 32.4633C-23.13 31.9774 -25.0644 31.864 -26.9649 32.1297C-28.8661 32.3837 -30.6981 33.0116 -32.3553 33.9771C-34.0125 34.9426 -35.4621 36.2266 -36.6204 37.7551L-330.199 423.514C-331.998 425.866 -333.031 428.714 -333.158 431.672C-333.259 434.028 -332.787 436.372 -331.783 438.505C-330.778 440.638 -329.271 442.496 -327.391 443.919L59.5701 736.731C62.6589 739.062 66.5448 740.077 70.3793 739.553C74.2137 739.03 77.6852 737.01 80.0356 733.937L373.62 348.178C375.415 345.826 376.448 342.981 376.579 340.026Z" fill="#ECF9ED" fill-opacity="0.5"/>
<path opacity="0.8" d="M-336.841 414.997C-336.702 411.763 -335.55 408.654 -333.547 406.109L-42.2294 34.9307C-40.9711 33.3184 -39.4053 31.9716 -37.6227 30.9685C-35.8401 29.9653 -33.8763 29.3257 -31.8447 29.0866C-29.8137 28.8325 -27.7523 28.9835 -25.78 29.5309C-23.8076 30.0784 -21.9634 31.0114 -20.3541 32.276L351.981 322.828C353.592 324.082 354.94 325.642 355.946 327.418C356.953 329.194 357.599 331.151 357.847 333.178C358.096 335.204 357.942 337.259 357.394 339.226C356.846 341.192 355.915 343.031 354.655 344.637L63.331 715.816C62.0733 717.427 60.5085 718.774 58.7271 719.777C56.9456 720.78 54.9828 721.42 52.9524 721.66C50.9217 721.914 48.8608 721.763 46.8887 721.217C44.9165 720.671 43.0721 719.739 41.4618 718.477L-330.88 427.912C-332.828 426.387 -334.384 424.421 -335.421 422.175C-336.458 419.929 -336.944 417.468 -336.841 414.997ZM356.569 335.695C356.666 333.44 356.222 331.194 355.277 329.144C354.331 327.094 352.909 325.3 351.131 323.909L-21.2048 33.3512C-22.672 32.2002 -24.3522 31.3505 -26.149 30.8511C-27.9459 30.3517 -29.8237 30.2125 -31.6746 30.4413C-33.526 30.6615 -35.3156 31.2456 -36.9404 32.16C-38.5652 33.0743 -39.993 34.3009 -41.1417 35.7691L-332.46 406.948C-334.301 409.257 -335.364 412.089 -335.498 415.04C-335.591 417.297 -335.143 419.545 -334.192 421.595C-333.241 423.645 -331.813 425.438 -330.029 426.825L42.3125 717.383C43.7791 718.535 45.4595 719.384 47.2566 719.883C49.0536 720.381 50.9317 720.519 52.7822 720.287C54.6343 720.069 56.4247 719.486 58.0497 718.571C59.6748 717.657 61.1023 716.429 62.2494 714.959L353.567 343.781C355.392 341.467 356.443 338.638 356.569 335.695Z" fill="#ECF9ED" fill-opacity="0.5"/>
<path opacity="0.8" d="M-339.156 398.382C-339.015 395.151 -337.837 392.051 -335.796 389.543L-46.7382 32.9441C-44.2008 29.826 -40.5324 27.8382 -36.5341 27.4148C-32.5357 26.9914 -28.5322 28.1667 -25.3977 30.6842L332.342 318.964C334.184 320.455 335.652 322.356 336.628 324.515C337.604 326.675 338.061 329.032 337.963 331.4C337.83 334.631 336.653 337.732 334.609 340.239L45.5329 696.874C44.283 698.424 42.7384 699.711 40.9883 700.66C39.2383 701.61 37.3174 702.204 35.3366 702.408C33.3553 702.623 31.3512 702.444 29.4395 701.881C27.5279 701.318 25.7466 700.382 24.1985 699.128L-333.523 410.823C-335.369 409.333 -336.839 407.432 -337.817 405.271C-338.795 403.111 -339.254 400.751 -339.156 398.382ZM336.596 331.357C336.686 329.204 336.27 327.06 335.382 325.096C334.493 323.133 333.157 321.405 331.479 320.052L-26.2606 31.7413C-29.1105 29.4531 -32.7501 28.3848 -36.385 28.7695C-40.0199 29.1542 -43.3551 30.9606 -45.6627 33.7946L-334.726 390.393C-336.58 392.672 -337.646 395.49 -337.765 398.424C-337.854 400.578 -337.439 402.722 -336.552 404.686C-335.664 406.65 -334.33 408.38 -332.654 409.736L25.0552 698.04C26.4649 699.185 28.0874 700.04 29.829 700.555C31.5707 701.07 33.3971 701.235 35.2029 701.041C37.0051 700.857 38.7529 700.317 40.3455 699.454C41.938 698.591 43.3438 697.421 44.4817 696.011L333.539 339.412C335.405 337.13 336.477 334.302 336.596 331.357Z" fill="#ECF9ED" fill-opacity="0.5"/>
<path opacity="0.8" d="M-341.465 381.767C-341.332 378.537 -340.128 375.443 -338.044 372.971L-51.2345 30.9518C-49.9923 29.4629 -48.4671 28.2351 -46.7471 27.3394C-45.0272 26.4437 -43.1467 25.8978 -41.2144 25.7334C-39.2832 25.5519 -37.3351 25.7547 -35.4828 26.3303C-33.6305 26.9059 -31.9106 27.8428 -30.4226 29.0868L312.667 315.131C314.415 316.578 315.803 318.411 316.72 320.486C317.638 322.561 318.06 324.821 317.953 327.087C317.817 330.316 316.612 333.408 314.526 335.877L27.717 677.896C25.1927 680.887 21.5867 682.758 17.6871 683.099C13.7875 683.441 9.91116 682.225 6.90512 679.719L-336.196 393.674C-337.937 392.233 -339.32 390.408 -340.234 388.341C-341.148 386.275 -341.57 384.024 -341.465 381.767ZM316.574 327.026C316.672 324.971 316.289 322.922 315.457 321.041C314.625 319.16 313.366 317.498 311.78 316.188L-31.3158 30.1377C-32.6667 29.0133 -34.2261 28.1662 -35.9048 27.645C-37.5836 27.1238 -39.3486 26.9387 -41.099 27.1003C-42.8509 27.2497 -44.5558 27.7448 -46.1151 28.5571C-47.6743 29.3694 -49.0571 30.4827 -50.1833 31.8326L-336.993 373.852C-338.884 376.09 -339.977 378.894 -340.098 381.822C-340.194 383.876 -339.811 385.925 -338.979 387.806C-338.146 389.687 -336.888 391.348 -335.303 392.66L7.79837 678.716C10.5283 680.996 14.0511 682.099 17.5941 681.785C21.137 681.471 24.4105 679.764 26.6962 677.039L313.505 335.021C315.387 332.77 316.466 329.957 316.574 327.026Z" fill="#ECF9ED" fill-opacity="0.5"/>
<path opacity="0.8" d="M-343.786 365.133C-343.652 361.903 -342.42 358.815 -340.292 356.379L-55.7554 28.9404C-54.521 27.5113 -53.0154 26.3411 -51.3257 25.4976C-49.6361 24.654 -47.7958 24.1537 -45.9115 24.0258C-44.0287 23.8875 -42.137 24.1228 -40.3454 24.7181C-38.5538 25.3134 -36.8977 26.257 -35.4722 27.4945L293.003 311.279C294.646 312.69 295.946 314.457 296.804 316.446C297.662 318.434 298.056 320.592 297.956 322.755C297.825 325.986 296.592 329.075 294.462 331.509L9.92511 658.948C8.69055 660.375 7.18573 661.544 5.49731 662.388C3.80893 663.231 1.97028 663.732 0.0873108 663.862C-1.79724 664.005 -3.69131 663.773 -5.48602 663.181C-7.2807 662.589 -8.94061 661.648 -10.3703 660.412L-338.852 376.621C-340.494 375.207 -341.791 373.438 -342.646 371.447C-343.501 369.457 -343.891 367.297 -343.786 365.133ZM296.582 322.694C296.672 320.738 296.315 318.788 295.539 316.99C294.763 315.192 293.589 313.595 292.104 312.318L-36.3715 28.5334C-37.6608 27.4139 -39.1589 26.5606 -40.7796 26.0226C-42.4002 25.4846 -44.1113 25.2726 -45.8143 25.3987C-47.5201 25.5127 -49.1863 25.9639 -50.7164 26.7262C-52.2466 27.4885 -53.6103 28.5466 -54.7285 29.8395L-339.265 357.279C-341.187 359.475 -342.302 362.261 -342.425 365.176C-342.516 367.131 -342.16 369.08 -341.386 370.877C-340.611 372.674 -339.437 374.27 -337.953 375.546L-9.45883 659.373C-8.16812 660.492 -6.66876 661.344 -5.04709 661.881C-3.42538 662.418 -1.71347 662.629 -0.00991821 662.502C1.69165 662.387 3.35361 661.936 4.87964 661.175C6.40564 660.414 7.76535 659.357 8.87994 658.067L293.417 330.628C295.352 328.425 296.47 325.624 296.582 322.694Z" fill="#ECF9ED" fill-opacity="0.5"/>
<path opacity="0.8" d="M-346.114 348.537C-345.965 345.307 -344.7 342.228 -342.535 339.826L-60.2587 26.9666C-59.0309 25.6013 -57.5452 24.4922 -55.8871 23.703C-54.229 22.9138 -52.4312 22.46 -50.5971 22.3678C-48.764 22.2666 -46.929 22.5291 -45.1978 23.1401C-43.4666 23.751 -41.8735 24.6985 -40.5102 25.9278L273.351 307.422C274.888 308.795 276.099 310.492 276.898 312.391C277.697 314.289 278.063 316.342 277.969 318.4C277.822 321.629 276.56 324.708 274.397 327.111L-7.88565 639.97C-9.11063 641.337 -10.5948 642.448 -12.2523 643.237C-13.9097 644.027 -15.7074 644.479 -17.5412 644.569C-19.3752 644.67 -21.2111 644.407 -22.9432 643.797C-24.6754 643.186 -26.2696 642.238 -27.6342 641.009L-341.49 359.472C-343.021 358.104 -344.23 356.414 -345.029 354.524C-345.829 352.633 -346.199 350.588 -346.114 348.537ZM276.59 318.357C276.674 316.501 276.344 314.65 275.624 312.938C274.904 311.225 273.812 309.694 272.428 308.455L-41.4338 26.924C-42.6656 25.8139 -44.1055 24.9593 -45.6701 24.4097C-47.2348 23.8602 -48.8929 23.6266 -50.5485 23.7226C-52.2009 23.8037 -53.8207 24.2117 -55.3144 24.9228C-56.808 25.634 -58.1456 26.6342 -59.25 27.8657L-341.532 340.725C-343.484 342.888 -344.623 345.663 -344.753 348.574C-344.836 350.429 -344.505 352.28 -343.785 353.993C-343.065 355.705 -341.974 357.236 -340.59 358.476L-26.7288 640.007C-25.4966 641.116 -24.0567 641.971 -22.4923 642.522C-20.9279 643.072 -19.2699 643.308 -17.6141 643.214C-15.964 643.138 -14.3453 642.737 -12.851 642.033C-11.3566 641.329 -10.0161 640.337 -8.90652 639.114L273.4 326.212C275.343 324.043 276.471 321.266 276.59 318.357Z" fill="#ECF9ED" fill-opacity="0.5"/>
<path opacity="0.8" d="M-348.441 331.922C-348.298 328.691 -347.005 325.616 -344.795 323.253L-64.7793 24.9739C-63.5601 23.6696 -62.0948 22.6192 -60.468 21.8832C-58.8412 21.1471 -57.0848 20.7399 -55.3 20.685C-53.5192 20.6227 -51.7437 20.9127 -50.0752 21.5382C-48.4068 22.1637 -46.8784 23.1124 -45.5777 24.33L253.664 303.601C255.102 304.934 256.233 306.564 256.979 308.378C257.725 310.191 258.068 312.145 257.984 314.104C257.842 317.336 256.549 320.411 254.338 322.773L-25.6894 621.065C-28.1626 623.683 -31.5712 625.216 -35.171 625.33C-38.7708 625.443 -42.2695 624.129 -44.9032 621.672L-344.145 342.402C-345.575 341.068 -346.7 339.441 -347.441 337.633C-348.183 335.824 -348.524 333.876 -348.441 331.922ZM256.611 314.026C256.686 312.267 256.378 310.513 255.71 308.884C255.042 307.255 254.029 305.791 252.74 304.591L-46.4891 25.3202C-47.659 24.2232 -49.0344 23.3686 -50.5362 22.8055C-52.038 22.2425 -53.6364 21.9822 -55.2393 22.0397C-56.8408 22.0884 -58.4169 22.4532 -59.8769 23.1132C-61.3369 23.7731 -62.6519 24.7152 -63.7463 25.8852L-343.762 324.195C-345.755 326.314 -346.921 329.077 -347.049 331.983C-347.126 333.741 -346.82 335.494 -346.154 337.123C-345.488 338.751 -344.477 340.217 -343.191 341.417L-43.9492 620.688C-41.5795 622.893 -38.4335 624.072 -35.198 623.966C-31.9625 623.86 -28.9003 622.479 -26.6799 620.123L253.336 321.844C255.331 319.715 256.494 316.94 256.611 314.026Z" fill="#ECF9ED" fill-opacity="0.5"/>
<path opacity="0.8" d="M-350.774 315.319C-350.631 312.083 -349.298 309.013 -347.031 306.699L-69.2694 22.9991C-66.8163 20.5017 -63.4742 19.0763 -59.9732 19.0342C-56.4723 18.992 -53.0969 20.3367 -50.5843 22.7744L234.037 299.792C235.366 301.087 236.406 302.649 237.09 304.374C237.774 306.099 238.086 307.949 238.005 309.803C237.865 313.042 236.532 316.114 234.262 318.429L-43.4931 602.129C-45.9465 604.628 -49.2899 606.055 -52.7923 606.097C-56.2947 606.139 -59.6714 604.793 -62.1843 602.354L-346.8 325.337C-348.13 324.04 -349.172 322.478 -349.856 320.752C-350.541 319.026 -350.854 317.174 -350.774 315.319ZM236.632 309.712C236.705 308.05 236.425 306.391 235.812 304.845C235.198 303.298 234.264 301.899 233.071 300.739L-51.5444 23.7221C-53.7961 21.5394 -56.8199 20.3355 -59.9561 20.373C-63.0922 20.4106 -66.0863 21.6865 -68.2851 23.9225L-346.04 307.652C-348.073 309.725 -349.267 312.475 -349.395 315.374C-349.467 317.034 -349.188 318.692 -348.576 320.237C-347.963 321.782 -347.031 323.18 -345.84 324.34L-61.2181 601.357C-58.9656 603.539 -55.9414 604.742 -52.8052 604.703C-49.669 604.665 -46.6754 603.388 -44.4775 601.151L233.278 317.451C235.317 315.369 236.512 312.605 236.632 309.694V309.712Z" fill="#ECF9ED" fill-opacity="0.5"/>
<path opacity="0.8" d="M-353.083 298.686C-352.941 295.442 -351.568 292.375 -349.243 290.108L-73.7479 20.952C-71.3098 18.5804 -68.0323 17.2691 -64.6308 17.3044C-61.2293 17.3397 -57.9798 18.7186 -55.5914 21.1403L214.38 295.879C215.605 297.132 216.561 298.623 217.188 300.259C217.815 301.895 218.1 303.642 218.026 305.393C217.887 308.641 216.514 311.713 214.185 313.983L-61.2972 583.157C-63.7353 585.529 -67.0127 586.84 -70.4143 586.805C-73.8158 586.769 -77.0653 585.39 -79.4537 582.969L-349.437 308.211C-350.663 306.957 -351.619 305.464 -352.246 303.826C-352.873 302.188 -353.158 300.438 -353.083 298.686ZM216.689 305.368C216.756 303.803 216.501 302.24 215.94 300.777C215.379 299.314 214.523 297.982 213.426 296.863L-56.6062 22.1002C-58.7383 19.9388 -61.6391 18.7085 -64.6753 18.6778C-67.7115 18.647 -70.6367 19.8184 -72.8121 21.9361L-348.307 291.086C-350.385 293.109 -351.611 295.85 -351.734 298.747C-351.802 300.312 -351.547 301.875 -350.986 303.338C-350.424 304.801 -349.569 306.133 -348.471 307.252L-78.4754 582.009C-76.3422 584.171 -73.4404 585.401 -70.4032 585.432C-67.366 585.462 -64.4399 584.291 -62.2634 582.173L213.231 313.053C215.316 311.023 216.543 308.27 216.659 305.362L216.689 305.368Z" fill="#ECF9ED" fill-opacity="0.5"/>
<path opacity="0.8" d="M-355.459 282.071C-355.314 278.828 -353.898 275.772 -351.515 273.566L-78.2806 18.9897C-77.0858 17.8694 -75.6805 16.9973 -74.1462 16.4237C-72.6119 15.8502 -70.979 15.5867 -69.3421 15.6485C-67.7056 15.699 -66.0952 16.0729 -64.6039 16.7485C-63.1126 17.4241 -61.7697 18.3881 -60.6528 19.585L194.723 292.088C195.853 293.29 196.729 294.706 197.301 296.252C197.873 297.799 198.129 299.444 198.053 301.091C197.919 304.346 196.501 307.415 194.109 309.627L-79.107 564.203C-81.5296 566.448 -84.7419 567.644 -88.0431 567.53C-91.3443 567.416 -94.4666 566.002 -96.7287 563.596L-352.11 291.104C-353.246 289.9 -354.127 288.479 -354.702 286.928C-355.278 285.376 -355.535 283.724 -355.459 282.071ZM196.692 301.031C196.762 299.56 196.535 298.089 196.023 296.708C195.512 295.327 194.726 294.064 193.714 292.994L-61.6614 20.4963C-62.6537 19.4298 -63.8479 18.5708 -65.1747 17.9692C-66.5015 17.3675 -67.9345 17.035 -69.3907 16.991C-70.8461 16.9367 -72.2979 17.1712 -73.6621 17.6811C-75.0263 18.191 -76.2759 18.9661 -77.3387 19.9617L-350.573 274.538C-352.698 276.507 -353.959 279.237 -354.079 282.132C-354.15 283.603 -353.923 285.073 -353.411 286.454C-352.899 287.835 -352.114 289.099 -351.102 290.169L-95.7261 562.666C-93.7134 564.807 -90.9351 566.065 -87.9977 566.165C-85.0604 566.266 -82.2028 565.2 -80.0488 563.201L193.192 308.637C194.246 307.661 195.098 306.487 195.699 305.182C196.299 303.877 196.637 302.466 196.692 301.031Z" fill="#ECF9ED" fill-opacity="0.5"/>
<path opacity="0.8" d="M-357.81 265.456C-357.746 263.838 -357.354 262.25 -356.657 260.788C-355.96 259.326 -354.974 258.021 -353.757 256.951L-82.7834 16.955C-80.3757 14.8272 -77.2231 13.7394 -74.0152 13.9295C-70.8073 14.1196 -67.8053 15.5722 -65.666 17.9695L175.096 288.219C177.185 290.558 178.275 293.622 178.134 296.754C178.068 298.373 177.674 299.961 176.977 301.423C176.279 302.885 175.292 304.19 174.075 305.259L-96.9173 545.256C-99.3236 547.376 -102.471 548.459 -105.673 548.269C-108.875 548.079 -111.872 546.631 -114.01 544.241L-354.766 274.01C-356.863 271.668 -357.956 268.596 -357.81 265.456ZM176.736 296.694C176.861 293.917 175.892 291.202 174.038 289.13L-66.7233 18.8626C-68.6162 16.7427 -71.2716 15.4581 -74.109 15.2896C-76.9465 15.1212 -79.7352 16.0825 -81.8658 17.9635L-352.84 257.984C-353.919 258.93 -354.794 260.086 -355.413 261.381C-356.031 262.676 -356.38 264.083 -356.437 265.517C-356.563 268.297 -355.592 271.015 -353.733 273.086L-112.977 543.33C-111.083 545.45 -108.427 546.735 -105.589 546.904C-102.75 547.072 -99.9604 546.11 -97.8287 544.229L173.139 304.227C174.218 303.28 175.093 302.124 175.711 300.829C176.329 299.534 176.678 298.127 176.736 296.694Z" fill="#ECF9ED" fill-opacity="0.5"/>
<path opacity="0.8" d="M-360.174 248.841C-360.101 247.22 -359.693 245.631 -358.974 244.175C-358.255 242.72 -357.243 241.429 -355.999 240.385L-87.2859 14.9622C-86.1051 13.9673 -84.7391 13.2157 -83.2666 12.7507C-81.7941 12.2857 -80.2441 12.1164 -78.7059 12.2528C-77.1693 12.3816 -75.6734 12.8129 -74.3042 13.5218C-72.9349 14.2308 -71.7194 15.2034 -70.7275 16.3837L155.414 284.373C157.31 286.616 158.291 289.49 158.161 292.423C158.089 294.045 157.681 295.635 156.962 297.092C156.244 298.549 155.23 299.84 153.986 300.885L-114.727 526.302C-117.112 528.305 -120.194 529.283 -123.298 529.021C-126.402 528.76 -129.276 527.279 -131.292 524.905L-357.427 256.915C-359.329 254.667 -360.311 251.782 -360.174 248.841ZM156.788 292.362C156.897 289.774 156.029 287.239 154.357 285.26L-71.7787 17.2707C-72.6553 16.2286 -73.7293 15.37 -74.939 14.7445C-76.1487 14.1189 -77.4702 13.7387 -78.8274 13.6257C-80.1846 13.5048 -81.5522 13.6535 -82.8517 14.0632C-84.1511 14.473 -85.3566 15.1357 -86.3987 16.0131L-355.112 241.436C-356.208 242.359 -357.101 243.499 -357.735 244.784C-358.368 246.069 -358.729 247.471 -358.795 248.902C-358.906 251.492 -358.038 254.029 -356.364 256.01L-130.228 523.993C-128.452 526.08 -125.925 527.382 -123.195 527.618C-120.465 527.853 -117.752 527.003 -115.645 525.251L153.087 299.834C154.188 298.913 155.085 297.773 155.722 296.487C156.359 295.2 156.722 293.796 156.788 292.362Z" fill="#ECF9ED" fill-opacity="0.5"/>
<path opacity="0.8" d="M-362.545 232.22C-362.472 230.591 -362.05 228.996 -361.307 227.545C-360.563 226.093 -359.516 224.818 -358.236 223.807L-91.7955 12.9639C-90.6237 12.0317 -89.2789 11.3407 -87.8386 10.9309C-86.3983 10.5212 -84.891 10.4007 -83.4039 10.5764C-81.9136 10.7454 -80.4717 11.2083 -79.1617 11.9382C-77.8516 12.6682 -76.6994 13.6507 -75.7718 14.8289L135.744 280.559C137.439 282.702 138.302 285.386 138.174 288.116C138.104 289.735 137.687 291.319 136.952 292.763C136.217 294.207 135.182 295.477 133.915 296.487L-132.508 507.354C-134.878 509.229 -137.893 510.089 -140.896 509.748C-143.898 509.406 -146.643 507.891 -148.531 505.532L-360.053 239.802C-361.77 237.657 -362.655 234.965 -362.545 232.22ZM136.844 288.031C136.944 285.628 136.176 283.269 134.681 281.385L-76.8413 15.6612C-77.6549 14.6311 -78.6644 13.7723 -79.8116 13.1342C-80.9588 12.4961 -82.221 12.0914 -83.5254 11.9433C-84.8326 11.7876 -86.1576 11.8927 -87.4238 12.2524C-88.6901 12.6122 -89.8724 13.2195 -90.9023 14.0392L-357.355 224.882C-358.481 225.772 -359.401 226.895 -360.055 228.173C-360.708 229.45 -361.078 230.854 -361.141 232.287C-361.244 234.689 -360.475 237.047 -358.978 238.927L-147.462 504.657C-145.803 506.733 -143.391 508.069 -140.751 508.372C-138.111 508.676 -135.458 507.924 -133.371 506.279L133.034 295.436C134.164 294.548 135.089 293.427 135.747 292.149C136.404 290.871 136.778 289.466 136.844 288.031Z" fill="#ECF9ED" fill-opacity="0.5"/>
<path opacity="0.8" d="M-364.92 215.605C-364.851 213.966 -364.416 212.362 -363.646 210.913C-362.876 209.463 -361.792 208.204 -360.472 207.228L-96.2856 10.965C-93.9288 9.21996 -90.977 8.47812 -88.075 8.90154C-85.1729 9.32496 -82.5563 10.8792 -80.7967 13.2249L116.081 276.695C117.597 278.732 118.368 281.229 118.262 283.766C118.192 285.405 117.757 287.007 116.987 288.456C116.217 289.904 115.133 291.162 113.814 292.137L-150.348 488.406C-152.705 490.15 -155.657 490.891 -158.558 490.468C-161.46 490.044 -164.076 488.491 -165.837 486.147L-362.714 222.677C-364.241 220.643 -365.02 218.146 -364.92 215.605ZM116.907 283.73C117.003 281.508 116.329 279.322 114.999 277.539L-81.8783 14.0693C-83.4154 12.0116 -85.7047 10.6457 -88.246 10.2701C-90.7873 9.89448 -93.374 10.5396 -95.441 12.0646L-359.634 208.334C-360.789 209.188 -361.738 210.29 -362.412 211.559C-363.086 212.827 -363.468 214.231 -363.529 215.666C-363.617 217.888 -362.942 220.073 -361.615 221.856L-164.737 485.326C-163.195 487.378 -160.905 488.736 -158.366 489.106C-155.826 489.476 -153.243 488.827 -151.18 487.301L113.018 291.02C114.167 290.169 115.112 289.074 115.785 287.813C116.458 286.552 116.841 285.157 116.907 283.73Z" fill="#ECF9ED" fill-opacity="0.5"/>
<path opacity="0.8" d="M-367.308 198.984C-367.241 197.335 -366.792 195.724 -365.994 194.278C-365.197 192.833 -364.074 191.592 -362.714 190.656L-100.782 8.96649C-98.4407 7.34893 -95.5544 6.72279 -92.7528 7.22468C-89.9513 7.72657 -87.462 9.31576 -85.828 11.6455L96.466 272.868C97.8157 274.786 98.489 277.098 98.3801 279.441C98.3156 281.091 97.8668 282.703 97.0692 284.149C96.2717 285.595 95.1476 286.835 93.7863 287.77L-168.164 469.459C-170.506 471.076 -173.392 471.703 -176.194 471.201C-178.995 470.699 -181.484 469.11 -183.118 466.78L-365.412 205.558C-366.753 203.636 -367.42 201.325 -367.308 198.984ZM96.9886 279.374C97.0811 277.332 96.4934 275.317 95.3175 273.645L-86.9765 12.4231C-88.3997 10.3913 -90.5697 9.00532 -93.0121 8.5682C-95.4544 8.13108 -97.9706 8.67833 -100.01 10.0904L-361.943 191.78C-363.129 192.595 -364.11 193.676 -364.806 194.936C-365.502 196.196 -365.895 197.601 -365.953 199.039C-366.043 201.081 -365.455 203.095 -364.282 204.768L-181.988 465.99C-180.566 468.019 -178.399 469.404 -175.959 469.842C-173.52 470.281 -171.006 469.736 -168.966 468.329L92.9659 286.64C94.154 285.823 95.1359 284.742 95.834 283.481C96.5321 282.22 96.9274 280.814 96.9886 279.374Z" fill="#ECF9ED" fill-opacity="0.5"/>
<path opacity="0.8" d="M-369.708 182.369C-369.636 180.707 -369.165 179.086 -368.336 177.643C-367.507 176.2 -366.344 174.977 -364.944 174.077L-105.279 6.96751C-102.955 5.47463 -100.134 4.96249 -97.4326 5.54306C-94.7318 6.12364 -92.3706 7.74969 -90.8654 10.0657L76.7964 269.022C77.9684 270.825 78.5484 272.949 78.4553 275.097C78.3821 276.758 77.9114 278.378 77.0824 279.82C76.2534 281.262 75.0905 282.484 73.6913 283.383L-185.98 450.505C-188.305 451.996 -191.126 452.507 -193.826 451.927C-196.526 451.346 -198.888 449.721 -200.394 447.406L-368.056 188.45C-369.227 186.645 -369.805 184.519 -369.708 182.369ZM77.0759 275.042C77.1623 273.177 76.6584 271.332 75.6358 269.769L-92.02 10.8069C-93.3349 8.79929 -95.3888 7.39128 -97.7358 6.88855C-100.083 6.38582 -102.534 6.82896 -104.556 8.12175L-364.203 175.231C-365.416 176.015 -366.423 177.078 -367.142 178.33C-367.861 179.582 -368.27 180.988 -368.335 182.43C-368.416 184.295 -367.912 186.138 -366.895 187.703L-199.233 446.665C-197.926 448.673 -195.877 450.083 -193.534 450.586C-191.191 451.089 -188.744 450.645 -186.728 449.35L72.9439 282.235C74.1576 281.454 75.1662 280.393 75.8851 279.141C76.6041 277.89 77.0124 276.484 77.0759 275.042Z" fill="#ECF9ED" fill-opacity="0.5"/>
<path opacity="0.8" d="M-372.121 165.749C-372.052 164.071 -371.564 162.438 -370.701 160.998C-369.838 159.557 -368.627 158.357 -367.18 157.505L-109.769 4.96934C-107.461 3.60569 -104.707 3.21019 -102.108 3.86916C-99.5086 4.52813 -97.2758 6.18806 -95.8965 8.48673L57.1393 265.189C58.1495 266.873 58.6419 268.817 58.5551 270.778C58.4833 272.455 57.9939 274.087 57.1312 275.527C56.2685 276.966 55.0598 278.168 53.615 279.022L-203.796 431.557C-206.105 432.922 -208.86 433.318 -211.46 432.657C-214.059 431.997 -216.292 430.335 -217.669 428.034L-370.705 171.344C-371.713 169.657 -372.205 167.712 -372.121 165.749ZM57.1758 270.717C57.2496 269.026 56.8272 267.349 55.9605 265.894L-97.0814 9.19142C-98.2726 7.20556 -100.201 5.77152 -102.446 5.20242C-104.691 4.63332 -107.071 4.9754 -109.064 6.15395L-366.451 158.683C-367.698 159.423 -368.74 160.462 -369.483 161.706C-370.226 162.951 -370.646 164.361 -370.705 165.809C-370.777 167.501 -370.355 169.177 -369.489 170.633L-216.484 427.335C-215.295 429.322 -213.367 430.757 -211.123 431.326C-208.878 431.896 -206.5 431.553 -204.507 430.373L52.9101 277.837C54.1585 277.1 55.2027 276.063 55.9477 274.819C56.6927 273.576 57.1148 272.166 57.1758 270.717Z" fill="#ECF9ED" fill-opacity="0.5"/>
<path opacity="0.8" d="M-374.552 149.127C-374.472 147.434 -373.957 145.79 -373.056 144.353C-372.156 142.917 -370.9 141.736 -369.411 140.926L-114.278 2.97037C-111.982 1.7227 -109.285 1.43712 -106.778 2.17636C-104.272 2.91559 -102.161 4.6192 -100.91 6.91301L37.5058 261.356C38.3553 262.916 38.7628 264.678 38.6847 266.453C38.6067 268.145 38.0931 269.788 37.1936 271.224C36.294 272.66 35.039 273.839 33.55 274.648L-221.601 412.609C-223.894 413.845 -226.583 414.123 -229.081 413.384C-231.579 412.644 -233.683 410.946 -234.933 408.661L-373.367 154.218C-374.214 152.659 -374.623 150.9 -374.552 149.127ZM37.2931 266.374C37.3592 264.848 37.0061 263.333 36.2723 261.993L-102.125 7.56911C-103.205 5.60863 -105.014 4.1527 -107.161 3.517C-109.307 2.88131 -111.618 3.11709 -113.592 4.17322L-368.736 142.135C-370.025 142.821 -371.11 143.833 -371.885 145.069C-372.661 146.306 -373.098 147.724 -373.154 149.182C-373.219 150.707 -372.868 152.221 -372.139 153.562L-233.717 408.005C-232.637 409.964 -230.829 411.418 -228.684 412.054C-226.539 412.689 -224.23 412.455 -222.257 411.4L32.8938 273.439C34.1778 272.749 35.2593 271.736 36.031 270.5C36.8027 269.264 37.2378 267.848 37.2931 266.392V266.374Z" fill="#ECF9ED" fill-opacity="0.5"/>
<path opacity="0.8" d="M-376.994 132.5C-376.919 130.787 -376.383 129.125 -375.442 127.691C-374.501 126.257 -373.189 125.104 -371.647 124.354L-118.756 0.965658C-116.482 -0.132485 -113.866 -0.289072 -111.477 0.529902C-109.087 1.34888 -107.118 3.07727 -105.996 5.33962L17.8062 257.528C18.5046 258.955 18.8366 260.534 18.7723 262.121C18.6983 263.836 18.1617 265.5 17.2192 266.935C16.2768 268.37 14.9637 269.524 13.4189 270.274L-239.453 393.686C-241.726 394.79 -244.343 394.95 -246.734 394.131C-249.124 393.313 -251.094 391.583 -252.214 389.318L-376.028 137.099C-376.727 135.67 -377.059 134.09 -376.994 132.5ZM17.4234 262.06C17.48 260.703 17.1937 259.353 16.5909 258.136L-107.205 5.94711C-108.164 4.00511 -109.852 2.52139 -111.902 1.8202C-113.951 1.119 -116.195 1.25733 -118.143 2.20495L-371.033 125.587C-372.353 126.23 -373.475 127.217 -374.28 128.445C-375.086 129.672 -375.545 131.094 -375.609 132.561C-375.668 133.922 -375.383 135.275 -374.782 136.497L-250.998 388.68C-250.04 390.622 -248.351 392.106 -246.302 392.807C-244.252 393.508 -242.009 393.37 -240.061 392.422L12.8356 269.047C14.1577 268.402 15.2815 267.413 16.0888 266.183C16.8961 264.954 17.3572 263.53 17.4234 262.06Z" fill="#ECF9ED" fill-opacity="0.5"/>
</g>
</svg>
