<svg width="275" height="320" viewBox="0 0 275 320" fill="none" xmlns="http://www.w3.org/2000/svg">
<g opacity="0.8">
<path opacity="0.8" d="M408.78 231.72C406.59 231.991 404.367 231.633 402.373 230.688L81.2199 78.8173C79.8324 78.1657 78.5876 77.2455 77.5577 76.1098C76.5278 74.9742 75.7331 73.6456 75.2196 72.201C74.6983 70.7581 74.4673 69.2264 74.5398 67.694C74.6124 66.1616 74.9871 64.6586 75.6424 63.2716L226.849 -258.678C227.499 -260.063 228.417 -261.306 229.548 -262.336C230.68 -263.366 232.003 -264.162 233.443 -264.679C234.883 -265.195 236.411 -265.423 237.939 -265.347C239.467 -265.272 240.965 -264.896 242.348 -264.24L563.5 -112.369C564.888 -111.718 566.133 -110.797 567.163 -109.662C568.193 -108.526 568.987 -107.198 569.501 -105.753C570.023 -104.31 570.255 -102.778 570.182 -101.246C570.109 -99.7134 569.734 -98.2103 569.078 -96.8236L417.871 225.126C417.038 226.906 415.767 228.444 414.177 229.597C412.587 230.751 410.73 231.481 408.78 231.72ZM236.054 -264.356C234.259 -264.136 232.549 -263.463 231.086 -262.399C229.623 -261.336 228.454 -259.918 227.69 -258.278L76.4873 63.671C75.8845 64.9468 75.5396 66.3292 75.4727 67.7387C75.4057 69.1483 75.618 70.5572 76.0972 71.8845C76.5697 73.2134 77.3005 74.4356 78.2476 75.4805C79.1946 76.5255 80.3391 77.3726 81.6151 77.973L402.768 229.844C404.602 230.713 406.646 231.042 408.66 230.792C410.456 230.571 412.166 229.897 413.63 228.833C415.093 227.769 416.263 226.35 417.027 224.71L568.234 -97.2399C568.837 -98.5165 569.181 -99.8996 569.247 -101.31C569.313 -102.72 569.1 -104.129 568.62 -105.457C568.148 -106.786 567.418 -108.009 566.47 -109.054C565.523 -110.099 564.378 -110.946 563.102 -111.545L241.949 -263.416C240.114 -264.285 238.068 -264.611 236.054 -264.356Z" fill="#ECF9ED" fill-opacity="0.5"/>
<path opacity="0.8" d="M397.936 235.145C395.75 235.417 393.532 235.045 391.555 234.075L80.4017 82.0566C79.0554 81.4025 77.8523 80.4878 76.8619 79.3655C75.8715 78.2431 75.1135 76.9354 74.6317 75.518C74.14 74.1038 73.9331 72.6062 74.0229 71.1116C74.1126 69.6169 74.4974 68.1549 75.1549 66.8098L226.512 -245.101C227.161 -246.446 228.07 -247.65 229.186 -248.643C230.303 -249.636 231.604 -250.399 233.016 -250.886C234.428 -251.374 235.922 -251.578 237.413 -251.487C238.904 -251.395 240.363 -251.009 241.704 -250.351L552.857 -98.3334C555.567 -97.0021 557.641 -94.6522 558.624 -91.7971C559.608 -88.942 559.422 -85.8136 558.107 -83.0954L406.747 228.824C405.923 230.53 404.685 232.003 403.146 233.107C401.607 234.211 399.815 234.912 397.936 235.145ZM235.436 -250.492C233.71 -250.28 232.066 -249.637 230.653 -248.624C229.24 -247.61 228.105 -246.258 227.35 -244.692L75.991 67.2316C75.3866 68.4655 75.0328 69.8071 74.95 71.1787C74.8672 72.5503 75.0571 73.9248 75.5088 75.2226C75.9516 76.5227 76.6478 77.7222 77.5571 78.7515C78.4665 79.7808 79.5708 80.6195 80.8063 81.219L391.96 233.237C393.774 234.128 395.81 234.469 397.815 234.217C399.546 234.005 401.196 233.361 402.613 232.343C404.03 231.326 405.168 229.969 405.922 228.396L557.268 -83.5083C558.474 -86.0032 558.645 -88.8742 557.743 -91.4947C556.841 -94.1152 554.939 -96.2725 552.453 -97.4958L241.299 -249.514C239.482 -250.406 237.444 -250.746 235.436 -250.492Z" fill="#ECF9ED" fill-opacity="0.5"/>
<path opacity="0.8" d="M387.094 238.569C384.913 238.845 382.7 238.461 380.741 237.465L79.5865 85.2958C76.9571 83.9668 74.9625 81.6483 74.0406 78.8496C73.1188 76.0508 73.3451 73.0006 74.6698 70.3688L226.163 -231.513C226.815 -232.815 227.718 -233.976 228.82 -234.928C229.922 -235.881 231.201 -236.607 232.584 -237.064C233.966 -237.521 235.426 -237.701 236.878 -237.593C238.331 -237.485 239.747 -237.092 241.048 -236.435L542.201 -84.2698C543.505 -83.6148 544.666 -82.7077 545.617 -81.6009C546.569 -80.4941 547.291 -79.2097 547.743 -77.8219C548.204 -76.437 548.386 -74.9745 548.28 -73.5187C548.173 -72.0629 547.78 -70.6426 547.123 -69.3395L395.607 232.558C394.791 234.183 393.587 235.581 392.103 236.63C390.618 237.678 388.897 238.344 387.094 238.569ZM234.808 -236.627C233.153 -236.422 231.575 -235.812 230.212 -234.851C228.849 -233.891 227.744 -232.609 226.994 -231.119L75.4931 70.7886C74.2854 73.2012 74.0816 75.994 74.9262 78.5567C75.7708 81.1193 77.5952 83.2435 80.0007 84.4649L381.154 236.63C382.951 237.542 384.979 237.895 386.978 237.645C388.632 237.44 390.21 236.83 391.572 235.869C392.935 234.909 394.039 233.627 394.788 232.138L546.304 -69.7559C546.906 -70.9498 547.267 -72.2511 547.365 -73.5849C547.462 -74.9187 547.296 -76.2587 546.874 -77.5278C546.459 -78.7986 545.797 -79.9746 544.926 -80.988C544.054 -82.0015 542.991 -82.8322 541.796 -83.4322L240.643 -235.598C238.848 -236.517 236.818 -236.876 234.816 -236.628L234.808 -236.627Z" fill="#ECF9ED" fill-opacity="0.5"/>
<path opacity="0.8" d="M376.253 241.997C374.076 242.274 371.866 241.874 369.922 240.852L78.7685 88.5393C77.5069 87.8822 76.3879 86.9818 75.4759 85.8899C74.5639 84.7981 73.877 83.5366 73.4548 82.178C73.0251 80.8213 72.8676 79.3931 72.9912 77.9754C73.1148 76.5577 73.5171 75.1784 74.1751 73.9167L225.839 -217.954C226.494 -219.214 227.391 -220.331 228.479 -221.243C229.567 -222.155 230.824 -222.843 232.178 -223.267C233.533 -223.692 234.957 -223.845 236.371 -223.717C237.785 -223.589 239.159 -223.184 240.416 -222.524L531.57 -70.2108C534.108 -68.8717 536.014 -66.5828 536.871 -63.8435C537.729 -61.1042 537.468 -58.137 536.146 -55.5894L384.482 236.281C383.675 237.829 382.505 239.157 381.071 240.152C379.638 241.148 377.985 241.781 376.253 241.997ZM234.196 -222.769C232.61 -222.568 231.096 -221.986 229.784 -221.071C228.472 -220.157 227.402 -218.937 226.665 -217.518L75.0004 74.3486C74.3971 75.5009 74.028 76.7613 73.9144 78.057C73.8008 79.3528 73.945 80.6583 74.3386 81.8981C74.7245 83.1396 75.3524 84.2924 76.186 85.29C77.0196 86.2876 78.0425 87.1102 79.1955 87.7105L370.35 240.023C372.126 240.958 374.146 241.324 376.138 241.073C377.723 240.872 379.236 240.29 380.547 239.377C381.859 238.463 382.929 237.245 383.666 235.827L535.33 -56.0438C536.536 -58.3728 536.772 -61.0848 535.986 -63.5876C535.2 -66.0903 533.456 -68.1805 531.135 -69.4015L239.981 -221.718C238.205 -222.65 236.186 -223.017 234.196 -222.769Z" fill="#ECF9ED" fill-opacity="0.5"/>
<path opacity="0.8" d="M365.413 245.429C363.236 245.704 361.028 245.288 359.1 244.239L77.9456 91.7788C76.7251 91.1213 75.6472 90.2281 74.7741 89.1511C73.9011 88.074 73.2504 86.8344 72.8597 85.5041C72.4589 84.1757 72.3254 82.7811 72.467 81.4009C72.6085 80.0207 73.0223 78.6823 73.6843 77.4631L225.501 -204.377C226.156 -205.596 227.045 -206.674 228.117 -207.549C229.19 -208.423 230.424 -209.077 231.75 -209.474C233.075 -209.87 234.466 -210.001 235.843 -209.858C237.219 -209.716 238.554 -209.303 239.77 -208.644L520.925 -56.1795C522.145 -55.5224 523.223 -54.6298 524.096 -53.5535C524.969 -52.4771 525.62 -51.2383 526.011 -49.9088C526.411 -48.5807 526.545 -47.1865 526.404 -45.8066C526.263 -44.4266 525.851 -43.0882 525.19 -41.8686L373.366 239.977C372.568 241.452 371.431 242.716 370.048 243.664C368.665 244.612 367.077 245.217 365.413 245.429ZM233.577 -208.906C232.059 -208.714 230.609 -208.162 229.347 -207.297C228.085 -206.432 227.047 -205.278 226.32 -203.932L74.4995 77.9093C73.8972 79.0206 73.5205 80.24 73.3911 81.4974C73.2617 82.7549 73.3822 84.0256 73.7456 85.2363C74.1032 86.4485 74.697 87.5779 75.4927 88.5596C76.2885 89.5414 77.2704 90.356 78.3821 90.9567L359.537 243.417C361.289 244.384 363.303 244.773 365.289 244.527C366.808 244.332 368.259 243.777 369.521 242.909C370.782 242.04 371.818 240.882 372.543 239.532L524.363 -42.3127C524.965 -43.4237 525.342 -44.6431 525.471 -45.9007C525.6 -47.1582 525.478 -48.4288 525.113 -49.639C524.756 -50.8518 524.163 -51.9819 523.367 -52.9638C522.571 -53.9457 521.589 -54.76 520.476 -55.3594L239.322 -207.819C237.568 -208.776 235.559 -209.156 233.577 -208.906Z" fill="#ECF9ED" fill-opacity="0.5"/>
<path opacity="0.8" d="M354.574 248.865C352.4 249.139 350.194 248.704 348.286 247.625L77.1312 95.0174C74.7591 93.6763 73.0137 91.4511 72.2761 88.8274C71.5386 86.2038 71.8688 83.3949 73.1946 81.0141L225.153 -190.815C225.939 -192.215 227.043 -193.412 228.375 -194.31C229.707 -195.208 231.23 -195.781 232.823 -195.985C234.998 -196.263 237.204 -195.829 239.111 -194.748L510.292 -42.1329C511.47 -41.4738 512.506 -40.5881 513.339 -39.5267C514.173 -38.4652 514.788 -37.2492 515.15 -35.9487C515.519 -34.6493 515.627 -33.2897 515.468 -31.9482C515.309 -30.6068 514.886 -29.3101 514.224 -28.133L362.248 243.686C361.462 245.089 360.358 246.288 359.026 247.187C357.694 248.086 356.169 248.661 354.574 248.865ZM232.95 -195.066C231.501 -194.882 230.116 -194.36 228.905 -193.543C227.694 -192.726 226.691 -191.637 225.977 -190.362L73.999 81.4705C72.7941 83.6351 72.4941 86.1886 73.1644 88.5738C73.8348 90.959 75.4211 92.9822 77.5773 94.202L348.733 246.813C350.466 247.793 352.47 248.185 354.445 247.93C355.894 247.746 357.28 247.224 358.491 246.408C359.703 245.592 360.706 244.503 361.422 243.229L513.4 -28.5819C514.005 -29.654 514.391 -30.8354 514.537 -32.0577C514.684 -33.2801 514.586 -34.5193 514.252 -35.704C513.923 -36.8873 513.364 -37.9939 512.606 -38.9599C511.848 -39.9259 510.906 -40.7322 509.835 -41.3323L238.681 -193.94C236.943 -194.927 234.932 -195.322 232.95 -195.066Z" fill="#ECF9ED" fill-opacity="0.5"/>
<path opacity="0.8" d="M343.734 252.298C341.561 252.576 339.356 252.124 337.467 251.012L76.3107 98.2493C75.1746 97.5885 74.1807 96.7089 73.3866 95.6615C72.5925 94.614 72.0139 93.4195 71.6843 92.147C71.3434 90.8772 71.2575 89.5524 71.4315 88.2492C71.6055 86.946 72.0359 85.6902 72.698 84.5544L224.828 -177.231C225.596 -178.563 226.663 -179.699 227.945 -180.548C229.227 -181.397 230.689 -181.936 232.216 -182.123C234.389 -182.399 236.592 -181.945 238.48 -180.832L499.636 -28.0691C501.922 -26.7224 503.582 -24.5256 504.253 -21.9586C504.925 -19.3916 504.554 -16.6632 503.22 -14.3694L351.092 247.424C350.327 248.751 349.264 249.882 347.987 250.728C346.71 251.574 345.254 252.111 343.734 252.298ZM232.332 -181.194C230.948 -181.025 229.622 -180.537 228.46 -179.767C227.298 -178.997 226.33 -177.967 225.635 -176.758L73.5018 85.0318C72.9041 86.0623 72.5153 87.2007 72.3579 88.3817C72.2005 89.5627 72.2775 90.7632 72.5845 91.9144C72.8836 93.0681 73.4083 94.1511 74.1284 95.1007C74.8485 96.0502 75.7497 96.8476 76.7798 97.4467L337.936 250.21C339.647 251.219 341.645 251.63 343.615 251.378C344.999 251.209 346.324 250.72 347.487 249.95C348.649 249.18 349.616 248.15 350.312 246.942L502.449 -14.8523C503.662 -16.9357 503.999 -19.4152 503.386 -21.747C502.773 -24.0787 501.26 -26.072 499.18 -27.2896L238.023 -180.052C236.305 -181.054 234.303 -181.455 232.332 -181.194Z" fill="#ECF9ED" fill-opacity="0.5"/>
<path opacity="0.8" d="M332.883 255.741C330.709 256.019 328.506 255.546 326.637 254.401L75.4809 101.499C74.3857 100.837 73.4325 99.9637 72.6767 98.9306C71.9209 97.8974 71.3774 96.7246 71.0776 95.48C70.7711 94.2376 70.7133 92.9468 70.9074 91.6819C71.1014 90.417 71.5436 89.2031 72.2085 88.1098L224.49 -163.653C225.246 -164.911 226.279 -165.981 227.51 -166.78C228.741 -167.58 230.138 -168.088 231.595 -168.267C233.769 -168.547 235.974 -168.074 237.842 -166.928L488.998 -14.0255C490.092 -13.3629 491.044 -12.4902 491.8 -11.4579C492.555 -10.4256 493.099 -9.25398 493.4 -8.01052C493.71 -6.76738 493.77 -5.47537 493.579 -4.20879C493.387 -2.9422 492.947 -1.72603 492.284 -0.630167L339.999 251.137C339.241 252.395 338.206 253.463 336.973 254.261C335.74 255.059 334.341 255.565 332.883 255.741ZM231.711 -167.342C230.394 -167.18 229.131 -166.72 228.018 -165.997C226.905 -165.274 225.971 -164.307 225.287 -163.17L73.0049 88.5926C72.4035 89.5814 72.0036 90.6796 71.8284 91.8237C71.6532 92.9678 71.706 94.1353 71.984 95.259C72.2541 96.3858 72.7451 97.4479 73.4284 98.3837C74.1118 99.3195 74.9739 100.11 75.965 100.711L327.121 253.613C328.806 254.647 330.795 255.075 332.757 254.826C334.073 254.665 335.336 254.206 336.448 253.483C337.561 252.761 338.494 251.795 339.178 250.659L491.486 -1.1211C492.087 -2.1108 492.486 -3.20964 492.66 -4.35433C492.835 -5.49904 492.781 -6.66695 492.502 -7.79081C492.232 -8.91483 491.742 -9.97413 491.06 -10.9073C490.378 -11.8404 489.517 -12.6289 488.528 -13.227L237.372 -166.129C235.681 -167.172 233.681 -167.601 231.711 -167.342Z" fill="#ECF9ED" fill-opacity="0.5"/>
<path opacity="0.8" d="M322.058 259.182C319.883 259.45 317.682 258.955 315.83 257.781L74.6742 104.732C73.6223 104.067 72.7122 103.2 71.9963 102.182C71.2804 101.164 70.7728 100.014 70.5026 98.7989C70.2266 97.5855 70.1933 96.3294 70.4047 95.1032C70.6161 93.8769 71.0681 92.7046 71.7345 91.6538L224.147 -150.083C224.89 -151.266 225.886 -152.268 227.064 -153.018C228.242 -153.767 229.572 -154.245 230.958 -154.417C233.133 -154.686 235.333 -154.192 237.185 -153.02L478.342 0.033195C479.395 0.696303 480.305 1.56183 481.021 2.57961C481.737 3.59739 482.244 4.74717 482.513 5.96232C482.789 7.17636 482.822 8.43302 482.611 9.65993C482.399 10.8869 481.948 12.0598 481.281 13.1115L328.839 254.849C328.1 256.028 327.108 257.028 325.935 257.777C324.763 258.526 323.439 259.006 322.058 259.182ZM231.086 -153.491C229.837 -153.336 228.637 -152.904 227.575 -152.229C226.512 -151.553 225.613 -150.649 224.943 -149.583L72.5053 92.1577C71.9035 93.107 71.4962 94.1664 71.3068 95.2744C71.1175 96.3824 71.15 97.517 71.4023 98.6124C71.6444 99.7073 72.1012 100.743 72.7463 101.661C73.3913 102.578 74.2118 103.358 75.1603 103.956L316.317 257.009C317.984 258.068 319.968 258.513 321.928 258.269C323.177 258.113 324.376 257.682 325.439 257.006C326.501 256.33 327.401 255.427 328.071 254.361L480.509 12.6204C481.11 11.6709 481.518 10.6115 481.708 9.50357C481.898 8.3956 481.866 7.26094 481.616 6.16508C481.377 5.07114 480.925 4.03515 480.285 3.11661C479.644 2.19807 478.829 1.41512 477.886 0.812771L236.698 -152.252C235.027 -153.304 233.044 -153.742 231.086 -153.491Z" fill="#ECF9ED" fill-opacity="0.5"/>
<path opacity="0.8" d="M311.22 262.627C309.044 262.899 306.843 262.384 305.013 261.176L73.8564 107.98C72.8462 107.313 71.9777 106.454 71.3008 105.45C70.624 104.447 70.1522 103.319 69.9126 102.133C69.6685 100.95 69.6603 99.7307 69.8886 98.5447C70.1168 97.3587 70.577 96.2295 71.2427 95.2219L223.832 -136.493C224.56 -137.605 225.52 -138.547 226.647 -139.251C227.774 -139.956 229.041 -140.407 230.36 -140.574C232.536 -140.846 234.737 -140.332 236.567 -139.123L467.733 14.0799C469.763 15.4349 471.175 17.5383 471.661 19.9308C472.146 22.3234 471.665 24.8108 470.324 26.8499L317.734 258.565C317.006 259.672 316.047 260.608 314.922 261.31C313.798 262.011 312.535 262.46 311.22 262.627ZM230.463 -139.647C229.279 -139.497 228.142 -139.093 227.13 -138.461C226.118 -137.829 225.254 -136.986 224.599 -135.988L72.0081 95.7183C71.408 96.6248 70.9933 97.6411 70.7879 98.7086C70.5824 99.7762 70.5902 100.874 70.8109 101.938C71.0255 103.003 71.4485 104.015 72.0555 104.915C72.6625 105.816 73.4416 106.587 74.3478 107.186L305.524 260.379C307.167 261.47 309.146 261.935 311.102 261.69C312.286 261.541 313.423 261.138 314.435 260.507C315.448 259.877 316.312 259.035 316.968 258.039L469.558 26.3243C470.762 24.4902 471.191 22.254 470.753 20.1039C470.314 17.9539 469.043 16.0648 467.216 14.8488L236.06 -138.348C234.411 -139.439 232.424 -139.9 230.463 -139.647Z" fill="#ECF9ED" fill-opacity="0.5"/>
<path opacity="0.8" d="M300.391 266.074C298.212 266.347 296.009 265.805 294.205 264.553L73.0473 111.205C71.0995 109.849 69.767 107.778 69.3408 105.444C68.9146 103.109 69.4293 100.701 70.7725 98.7445L223.518 -122.944C224.233 -123.98 225.158 -124.852 226.233 -125.505C227.308 -126.158 228.509 -126.577 229.757 -126.734C231.937 -127.009 234.142 -126.467 235.947 -125.214L457.104 28.1301C459.053 29.4853 460.386 31.5572 460.813 33.8928C461.239 36.2285 460.724 38.6379 459.379 40.5944L306.633 262.279C305.918 263.316 304.992 264.189 303.917 264.843C302.841 265.497 301.64 265.916 300.391 266.074ZM229.852 -125.806C228.733 -125.666 227.657 -125.291 226.693 -124.705C225.73 -124.119 224.901 -123.336 224.262 -122.407L71.5149 99.2783C70.3124 101.031 69.8518 103.189 70.2335 105.28C70.6152 107.371 71.8082 109.227 73.5524 110.442L294.729 263.783C296.345 264.905 298.319 265.39 300.27 265.146C301.388 265.006 302.464 264.631 303.427 264.046C304.39 263.461 305.218 262.679 305.858 261.751L458.604 40.0621C459.806 38.3088 460.265 36.1512 459.883 34.0599C459.501 31.9686 458.307 30.1135 456.562 28.8991L235.405 -124.445C233.782 -125.571 231.799 -126.055 229.84 -125.804L229.852 -125.806Z" fill="#ECF9ED" fill-opacity="0.5"/>
<path opacity="0.8" d="M289.539 269.508C287.356 269.782 285.15 269.213 283.371 267.917L72.1892 114.43C70.3272 113.071 69.0783 111.03 68.7151 108.753C68.3519 106.476 68.9039 104.147 70.2505 102.276L223.14 -109.364C223.838 -110.325 224.725 -111.133 225.747 -111.738C226.769 -112.343 227.904 -112.733 229.082 -112.882C231.269 -113.159 233.478 -112.59 235.259 -111.293L446.451 42.1844C448.313 43.5439 449.562 45.5848 449.925 47.8618C450.289 50.1388 449.737 52.467 448.39 54.3383L295.49 265.989C294.791 266.951 293.902 267.759 292.879 268.364C291.855 268.97 290.719 269.359 289.539 269.508ZM229.218 -111.986C228.165 -111.853 227.149 -111.505 226.236 -110.964C225.322 -110.422 224.529 -109.699 223.906 -108.839L71.0073 102.845C69.8055 104.516 69.3132 106.594 69.6379 108.626C69.9626 110.659 71.0779 112.48 72.7404 113.693L283.918 267.181C285.506 268.339 287.477 268.847 289.426 268.6C290.48 268.467 291.495 268.119 292.409 267.578C293.323 267.036 294.116 266.313 294.739 265.452L447.637 53.7937C448.839 52.1225 449.332 50.0436 449.007 48.0105C448.682 45.9775 447.566 44.1554 445.904 42.9419L234.747 -110.549C233.153 -111.712 231.174 -112.218 229.218 -111.965L229.218 -111.986Z" fill="#ECF9ED" fill-opacity="0.5"/>
<path opacity="0.8" d="M278.707 272.985C276.523 273.257 274.32 272.658 272.575 271.316L71.3932 117.682C70.5088 117.011 69.7662 116.171 69.2085 115.211C68.6508 114.251 68.289 113.19 68.1442 112.089C67.9919 110.99 68.0586 109.871 68.3405 108.798C68.6224 107.724 69.1139 106.717 69.7866 105.835L222.842 -95.798C223.516 -96.6895 224.363 -97.4364 225.331 -97.9945C226.299 -98.5526 227.37 -98.9105 228.479 -99.0469C230.669 -99.3276 232.881 -98.729 234.631 -97.3822L435.811 56.2402C437.586 57.6038 438.751 59.6144 439.05 61.8333C439.349 64.0521 438.759 66.2993 437.409 68.0845L284.362 269.72C283.687 270.616 282.838 271.366 281.866 271.927C280.894 272.488 279.82 272.847 278.707 272.985ZM228.593 -98.1304C227.602 -98.0104 226.646 -97.6913 225.781 -97.1924C224.916 -96.6934 224.161 -96.0249 223.561 -95.2269L70.5102 106.405C69.9104 107.19 69.4723 108.085 69.221 109.04C68.9698 109.995 68.9106 110.991 69.0468 111.969C69.176 112.947 69.4978 113.891 69.9936 114.744C70.4895 115.598 71.1495 116.345 71.9356 116.942L273.117 270.577C274.675 271.773 276.642 272.305 278.59 272.056C279.581 271.936 280.538 271.617 281.403 271.118C282.267 270.619 283.022 269.95 283.622 269.152L436.674 67.5202C437.875 65.9319 438.4 63.9323 438.133 61.9581C437.866 59.9839 436.829 58.1956 435.248 56.9836L234.074 -96.6564C233.302 -97.2501 232.42 -97.6859 231.48 -97.9388C230.54 -98.1917 229.559 -98.2568 228.593 -98.1304Z" fill="#ECF9ED" fill-opacity="0.5"/>
<path opacity="0.8" d="M267.872 276.446C266.783 276.587 265.677 276.505 264.621 276.206C263.565 275.906 262.581 275.396 261.728 274.704L70.5456 120.922C68.8499 119.555 67.7646 117.573 67.5268 115.407C67.2891 113.242 67.9185 111.071 69.2771 109.369L222.488 -82.2425C223.814 -83.9043 225.737 -84.9814 227.846 -85.2432C228.935 -85.3831 230.041 -85.3006 231.097 -85.0006C232.153 -84.7006 233.138 -84.1894 233.991 -83.4979L425.175 70.2962C426.865 71.6631 427.947 73.643 428.184 75.8042C428.421 77.9654 427.795 80.1327 426.441 81.8335L273.241 273.439C271.915 275.106 269.987 276.186 267.872 276.446ZM227.964 -84.3024C226.095 -84.0697 224.391 -83.1138 223.217 -81.6396L69.9941 109.974C68.7928 111.48 68.2363 113.4 68.4464 115.315C68.6564 117.231 69.6159 118.985 71.1151 120.195L262.314 273.974C263.069 274.587 263.94 275.041 264.876 275.307C265.812 275.573 266.792 275.646 267.756 275.521C269.628 275.289 271.334 274.331 272.507 272.853L425.714 81.2468C426.916 79.7401 427.472 77.819 427.262 75.9031C427.052 73.9873 426.092 72.2324 424.593 71.022L233.407 -82.7551C232.652 -83.3682 231.78 -83.8215 230.844 -84.0875C229.909 -84.3535 228.929 -84.4266 227.964 -84.3024Z" fill="#ECF9ED" fill-opacity="0.5"/>
<path opacity="0.8" d="M257.038 279.914C255.946 280.05 254.838 279.957 253.783 279.643C252.729 279.328 251.751 278.798 250.912 278.086L69.7257 124.158C68.9266 123.482 68.2691 122.654 67.7909 121.723C67.3128 120.792 67.0235 119.776 66.9396 118.732C66.851 117.691 66.9691 116.642 67.2872 115.647C67.6052 114.651 68.1169 113.728 68.7928 112.931L222.156 -68.6537C223.439 -70.1754 225.248 -71.1575 227.222 -71.4043C228.315 -71.5407 229.424 -71.4488 230.479 -71.1342C231.534 -70.8197 232.512 -70.2894 233.352 -69.577L414.534 84.3522C416.145 85.718 417.148 87.666 417.326 89.7701C417.504 91.8742 416.842 93.963 415.484 95.5798L262.12 277.161C260.834 278.687 259.019 279.671 257.038 279.914ZM227.338 -70.4797C225.596 -70.2585 224.001 -69.3906 222.869 -68.0481L69.5051 113.533C68.9084 114.237 68.4568 115.052 68.1763 115.932C67.8959 116.811 67.7921 117.738 67.8709 118.657C67.9444 119.578 68.1993 120.475 68.6208 121.297C69.0424 122.118 69.6223 122.849 70.3271 123.445L251.514 277.374C252.255 278.001 253.119 278.468 254.049 278.745C254.98 279.023 255.958 279.104 256.922 278.985C258.665 278.765 260.262 277.897 261.395 276.553L414.754 94.9728C415.947 93.5489 416.53 91.7121 416.377 89.8609C416.223 88.0097 415.347 86.2936 413.937 85.0848L232.752 -68.8566C232.011 -69.4873 231.147 -69.9573 230.215 -70.2367C229.283 -70.5161 228.303 -70.5989 227.338 -70.4797Z" fill="#ECF9ED" fill-opacity="0.5"/>
<path opacity="0.8" d="M246.201 283.387C245.104 283.524 243.99 283.423 242.936 283.092C241.881 282.76 240.91 282.205 240.089 281.465L68.903 127.397C68.1468 126.72 67.5322 125.9 67.0946 124.984C66.657 124.069 66.4051 123.075 66.3534 122.061C66.2969 121.046 66.4422 120.03 66.781 119.072C67.1199 118.113 67.6454 117.232 68.3272 116.478L221.843 -55.0766C223.083 -56.4531 224.778 -57.3351 226.617 -57.56C227.706 -57.6968 228.813 -57.5984 229.861 -57.2716C230.91 -56.9449 231.876 -56.3972 232.695 -55.6655L403.895 98.3873C405.417 99.7577 406.335 101.675 406.448 103.72C406.561 105.765 405.861 107.772 404.499 109.302L250.984 280.86C249.746 282.251 248.047 283.149 246.201 283.387ZM226.711 -56.6611C225.094 -56.4546 223.605 -55.6733 222.516 -54.4599L69.005 117.098C68.4092 117.759 67.9501 118.531 67.6542 119.37C67.3582 120.209 67.2313 121.099 67.2806 121.987C67.3252 122.878 67.5461 123.752 67.9305 124.557C68.3148 125.362 68.8551 126.083 69.5199 126.678L240.707 280.754C241.43 281.405 242.285 281.893 243.213 282.184C244.141 282.475 245.121 282.563 246.086 282.442C247.702 282.237 249.191 281.456 250.277 280.241L403.793 108.687C404.991 107.342 405.61 105.578 405.513 103.78C405.415 101.981 404.611 100.294 403.275 99.0861L232.093 -54.9573C231.371 -55.6114 230.517 -56.1022 229.588 -56.3962C228.659 -56.6902 227.678 -56.7806 226.711 -56.6611Z" fill="#ECF9ED" fill-opacity="0.5"/>
<path opacity="0.8" d="M235.369 286.864C234.265 287.005 233.144 286.896 232.088 286.547C231.032 286.197 230.067 285.616 229.265 284.845L68.0784 130.626C66.6443 129.249 65.8129 127.361 65.7659 125.374C65.7188 123.386 66.4599 121.461 67.8273 120.019L221.498 -41.4975C222.687 -42.7426 224.267 -43.5411 225.975 -43.7592C227.078 -43.8988 228.198 -43.7898 229.253 -43.4402C230.309 -43.0906 231.273 -42.5093 232.074 -41.7388L393.263 112.463C394.696 113.84 395.526 115.728 395.573 117.715C395.62 119.702 394.88 121.627 393.514 123.07L239.843 284.586C238.658 285.838 237.078 286.643 235.369 286.864ZM226.105 -42.8496C224.609 -42.6609 223.225 -41.962 222.185 -40.8708L68.5145 120.645C67.3143 121.906 66.6619 123.591 66.6998 125.332C66.7378 127.073 67.463 128.728 68.7171 129.936L229.909 284.159C230.611 284.833 231.455 285.342 232.38 285.649C233.304 285.955 234.285 286.05 235.251 285.928C236.746 285.734 238.129 285.035 239.17 283.945L392.841 122.429C394.036 121.165 394.684 119.48 394.642 117.741C394.6 116.002 393.873 114.35 392.618 113.145L231.418 -41.0798C230.719 -41.751 229.88 -42.258 228.961 -42.5641C228.042 -42.8702 227.066 -42.9678 226.105 -42.8496Z" fill="#ECF9ED" fill-opacity="0.5"/>
<path opacity="0.8" d="M224.534 290.35C223.424 290.493 222.296 290.376 221.24 290.007C220.183 289.639 219.227 289.029 218.446 288.227L67.2541 133.858C65.907 132.477 65.1604 130.619 65.1772 128.69C65.1941 126.761 65.9729 124.917 67.344 123.56L221.171 -27.9551C222.299 -29.075 223.767 -29.7879 225.345 -29.9815C226.455 -30.126 227.583 -30.0094 228.64 -29.6409C229.697 -29.2724 230.654 -28.6622 231.433 -27.8588L382.627 126.523C383.974 127.904 384.721 129.761 384.704 131.691C384.687 133.62 383.908 135.464 382.537 136.821L228.711 288.336C227.579 289.451 226.11 290.159 224.534 290.35ZM225.459 -29.0441C224.084 -28.8737 222.804 -28.2519 221.821 -27.276L67.9941 124.239C66.7982 125.421 66.1189 127.029 66.1045 128.711C66.0901 130.393 66.7419 132.012 67.9174 133.214L219.109 287.584C219.789 288.284 220.623 288.816 221.544 289.138C222.465 289.46 223.449 289.563 224.416 289.438C225.791 289.266 227.07 288.645 228.054 287.67L381.881 136.155C383.075 134.974 383.754 133.368 383.77 131.688C383.785 130.009 383.136 128.391 381.963 127.188L230.771 -27.1822C230.091 -27.8832 229.256 -28.4164 228.334 -28.7395C227.412 -29.0627 226.428 -29.1669 225.459 -29.0441Z" fill="#ECF9ED" fill-opacity="0.5"/>
<path opacity="0.8" d="M213.704 293.843C212.585 293.983 211.448 293.853 210.39 293.463C209.331 293.073 208.382 292.435 207.621 291.602L66.4292 137.089C65.1673 135.706 64.5043 133.879 64.5852 132.008C64.666 130.137 65.4841 128.375 66.8606 127.106L220.837 -14.3746C221.908 -15.3628 223.262 -15.9918 224.708 -16.1738C225.826 -16.3139 226.962 -16.1835 228.02 -15.7935C229.078 -15.4035 230.026 -14.7654 230.786 -13.9326L371.987 140.583C373.248 141.967 373.91 143.794 373.829 145.664C373.748 147.535 372.931 149.297 371.555 150.567L217.579 292.047C216.506 293.035 215.151 293.663 213.704 293.843ZM224.828 -15.2459C223.572 -15.0915 222.396 -14.545 221.468 -13.684L67.4871 127.793C66.2951 128.9 65.5878 130.432 65.5187 132.058C65.4497 133.683 66.0245 135.271 67.1183 136.475L208.308 290.976C208.97 291.697 209.794 292.249 210.713 292.587C211.631 292.925 212.617 293.038 213.588 292.918C214.843 292.76 216.018 292.214 216.948 291.356L370.928 149.875C372.121 148.774 372.83 147.244 372.9 145.622C372.97 143.999 372.395 142.414 371.301 141.214L230.104 -13.3026C229.444 -14.0248 228.62 -14.5782 227.702 -14.9163C226.784 -15.2544 225.799 -15.3674 224.828 -15.2459Z" fill="#ECF9ED" fill-opacity="0.5"/>
<path opacity="0.8" d="M202.872 297.346C201.743 297.491 200.596 297.35 199.536 296.937C198.475 296.524 197.535 295.852 196.801 294.982L65.6046 140.318C64.4309 138.931 63.8534 137.135 63.9983 135.324C64.1431 133.512 64.9984 131.831 66.3776 130.648L220.511 -0.802312C221.521 -1.66884 222.764 -2.21886 224.085 -2.38389C225.213 -2.52655 226.359 -2.38508 227.42 -1.97228C228.48 -1.55951 229.42 -0.888487 230.155 -0.0201263L361.352 154.644C362.526 156.031 363.104 157.827 362.958 159.64C362.813 161.452 361.956 163.132 360.575 164.314L206.449 295.763C205.437 296.629 204.193 297.179 202.872 297.346ZM224.201 -1.45527C223.062 -1.31223 221.99 -0.839336 221.116 -0.0947211L66.9832 131.36C65.7917 132.382 65.0527 133.833 64.9277 135.398C64.8027 136.963 65.3018 138.514 66.316 139.712L197.506 294.361C198.142 295.11 198.955 295.688 199.871 296.043C200.787 296.398 201.777 296.518 202.751 296.393C203.89 296.249 204.962 295.776 205.836 295.032L359.973 163.602C361.166 162.582 361.905 161.13 362.03 159.566C362.156 158.001 361.656 156.451 360.641 155.253L229.443 0.585584C228.809 -0.1648 227.997 -0.744592 227.081 -1.10102C226.166 -1.45745 225.175 -1.57923 224.201 -1.45527Z" fill="#ECF9ED" fill-opacity="0.5"/>
<path opacity="0.8" d="M192.041 300.859C190.901 300.998 189.743 300.841 188.681 300.402C187.619 299.964 186.687 299.259 185.977 298.356L64.7815 143.557C63.6867 142.165 63.1891 140.395 63.3981 138.636C63.6071 136.877 64.5055 135.273 65.896 134.176L220.182 12.7519C221.128 12.0069 222.259 11.5342 223.453 11.3846C224.593 11.2443 225.75 11.4006 226.811 11.8384C227.873 12.2763 228.804 12.9808 229.513 13.8838L350.715 168.694C351.801 170.086 352.293 171.852 352.083 173.605C351.872 175.358 350.977 176.957 349.592 178.052L195.308 299.488C194.363 300.232 193.234 300.705 192.041 300.859ZM223.559 12.3235C222.532 12.4528 221.56 12.8609 220.748 13.5036L66.4726 134.913C65.2854 135.858 64.5182 137.233 64.3375 138.739C64.1568 140.246 64.577 141.763 65.5072 142.962L186.708 297.768C187.313 298.551 188.112 299.161 189.027 299.539C189.941 299.916 190.938 300.047 191.919 299.919C192.945 299.789 193.917 299.382 194.73 298.743L349.015 177.314C350.202 176.37 350.968 174.996 351.149 173.491C351.33 171.985 350.91 170.469 349.981 169.27L228.78 14.4598C228.174 13.6802 227.374 13.0727 226.46 12.6976C225.546 12.3225 224.55 12.1928 223.571 12.3214L223.559 12.3235Z" fill="#ECF9ED" fill-opacity="0.5"/>
<path opacity="0.8" d="M181.209 304.382C180.055 304.527 178.884 304.358 177.819 303.892C176.753 303.426 175.834 302.681 175.157 301.735L63.9512 146.778C62.9588 145.383 62.5567 143.653 62.8322 141.963C63.1078 140.274 64.0388 138.761 65.423 137.754L219.864 26.3514C220.738 25.7225 221.755 25.3211 222.823 25.1836C223.978 25.0381 225.15 25.2075 226.217 25.6741C227.283 26.1406 228.203 26.8869 228.88 27.8339L340.1 182.776C341.095 184.169 341.5 185.9 341.225 187.59C340.95 189.281 340.018 190.794 338.632 191.8L184.172 303.214C183.296 303.843 182.278 304.245 181.209 304.382ZM222.936 26.0919C222.023 26.2084 221.153 26.5532 220.408 27.0944L65.9664 138.493C64.7777 139.354 63.9783 140.651 63.7428 142.101C63.5073 143.55 63.8548 145.033 64.7095 146.227L175.911 301.185C176.491 301.994 177.278 302.631 178.19 303.03C179.102 303.429 180.104 303.573 181.092 303.449C182.008 303.334 182.88 302.99 183.628 302.45L338.067 191.06C339.256 190.199 340.056 188.902 340.291 187.452C340.527 186.003 340.179 184.519 339.324 183.326L228.126 28.3632C227.545 27.553 226.756 26.9146 225.843 26.5149C224.929 26.1152 223.925 25.9691 222.936 26.0919Z" fill="#ECF9ED" fill-opacity="0.5"/>
</g>
</svg>
